<?xml version="1.0" encoding="utf-8"?>
<!-- Generator: Adobe Illustrator 21.0.2, SVG Export Plug-In . SVG Version: 6.00 Build 0)  -->
<svg version="1.1" id="Calque_1" xmlns="http://www.w3.org/2000/svg" xmlns:xlink="http://www.w3.org/1999/xlink" x="0px" y="0px"
	 viewBox="0 0 85 85" style="enable-background:new 0 0 85 85;" xml:space="preserve">
<style type="text/css">
	.st0{fill:none;stroke:#020203;stroke-width:2.5811;stroke-linecap:round;stroke-linejoin:round;stroke-miterlimit:10;}
	.st1{fill:#FFFFFF;stroke:#020203;stroke-width:2.5811;stroke-linecap:round;stroke-linejoin:round;stroke-miterlimit:10;}
	.st2{fill:#FFFFFF;stroke:#020203;stroke-width:1.7207;stroke-linecap:round;stroke-linejoin:round;stroke-miterlimit:10;}
	.st3{fill:none;stroke:#020203;stroke-width:1.7207;stroke-linecap:round;stroke-linejoin:round;stroke-miterlimit:10;}
</style>
<line class="st0" x1="44.4" y1="53.9" x2="69.1" y2="54.4"/>
<rect x="34.8" y="5" class="st0" width="45.6" height="60.2"/>
<path class="st1" d="M26.2,41.3C24.1,51.5,13.9,59.2,1.7,59.2c-0.3,0-0.6,0-0.9,0c0,0.1,0,0.2,0,0.2c0,12.9,11.3,23.4,25.2,23.4
	s25.2-10.5,25.2-23.4c0-0.1,0-0.1,0-0.2c-0.1,0-0.3,0-0.4,0C38.5,59.2,28.4,51.5,26.2,41.3z"/>
<path class="st1" d="M26.2,41.3c-0.3-1.3-0.4-2.7-0.4-4c0-0.4,0-0.9,0-1.3C12.1,36,1,46.4,0.8,59.2c0.3,0,0.6,0,0.9,0
	C13.9,59.2,24.1,51.5,26.2,41.3z"/>
<path class="st1" d="M26.6,36c0,0.4,0,0.8,0,1.3c0,1.4-0.2,2.7-0.4,4c2.2,10.2,12.3,17.9,24.5,17.9c0.1,0,0.3,0,0.4,0
	C51,46.5,40.1,36.3,26.6,36z"/>
<path class="st1" d="M25.8,36c0,0.4,0,0.9,0,1.3c0,1.4,0.2,2.7,0.4,4c0.3-1.3,0.4-2.7,0.4-4c0-0.4,0-0.9,0-1.3c-0.2,0-0.4,0-0.6,0
	C25.9,35.9,25.9,36,25.8,36z"/>
<path class="st2" d="M22.5,60.1c0,2-2,3.6-4.4,3.6c-2.3,0-4.2-1.4-4.4-3.3"/>
<line class="st3" x1="16.4" y1="63.6" x2="15.6" y2="64.9"/>
<line class="st3" x1="14.7" y1="62.6" x2="13.4" y2="63.6"/>
<line class="st3" x1="13.7" y1="61.1" x2="11.9" y2="61.8"/>
<line class="st3" x1="19.7" y1="63.6" x2="20.5" y2="64.9"/>
<line class="st3" x1="21.4" y1="62.6" x2="22.7" y2="63.6"/>
<line class="st3" x1="22.3" y1="61.1" x2="24.1" y2="61.8"/>
<line class="st3" x1="18.1" y1="63.8" x2="18" y2="65.5"/>
<path class="st2" d="M39.3,60.1c0,2-2,3.6-4.4,3.6c-2.3,0-4.2-1.4-4.4-3.3"/>
<line class="st3" x1="33.2" y1="63.6" x2="32.4" y2="64.9"/>
<line class="st3" x1="31.6" y1="62.6" x2="30.3" y2="63.6"/>
<line class="st3" x1="30.6" y1="61.1" x2="28.8" y2="61.8"/>
<line class="st3" x1="36.5" y1="63.6" x2="37.3" y2="64.9"/>
<line class="st3" x1="38.2" y1="62.6" x2="39.5" y2="63.6"/>
<line class="st3" x1="39.2" y1="61.1" x2="41" y2="61.8"/>
<line class="st3" x1="34.9" y1="63.8" x2="34.9" y2="65.5"/>
<path class="st3" d="M31.3,73.1c0,2.5-2.2,4.6-5,4.6s-5-2.1-5-4.6"/>
<line class="st0" x1="44.4" y1="16" x2="69.1" y2="16.6"/>
<line class="st0" x1="44.4" y1="25.5" x2="69.1" y2="26.1"/>
<line class="st0" x1="44.4" y1="34.9" x2="69.1" y2="35.5"/>
<line class="st0" x1="44.4" y1="44.4" x2="69.1" y2="45"/>
</svg>
