<?xml version="1.0" encoding="utf-8"?>
<!-- Generator: Adobe Illustrator 21.0.2, SVG Export Plug-In . SVG Version: 6.00 Build 0)  -->
<svg version="1.1" id="Calque_1" xmlns="http://www.w3.org/2000/svg" xmlns:xlink="http://www.w3.org/1999/xlink" x="0px" y="0px"
	 viewBox="0 0 85 85" style="enable-background:new 0 0 85 85;" xml:space="preserve">
<style type="text/css">
	.st0{fill:#FFFFFF;stroke:#020203;stroke-width:3;stroke-linecap:round;stroke-linejoin:round;stroke-miterlimit:10;}
</style>
<path class="st0" d="M59.5,11.5h-44c-6.6,0-12,5.4-12,12v6c0,4.9,3,9.1,7.2,11c-1.3,3.5-2,7-6.2,7c5.8,0,11.5-3.1,14.3-6h40.7
	c6.6,0,12-5.4,12-12v-6C71.5,16.9,66.1,11.5,59.5,11.5z"/>
<path class="st0" d="M25.4,46.5h32.7c4.9,0,8.9,4,8.9,8.9v4.5c0,3.6-2.2,6.8-5.3,8.1c1,2.6,1.5,5.2,4.6,5.2c-4.3,0-8.6-2.3-10.6-4.5
	H25.4c-4.9,0-8.9-4-8.9-8.9v-4.5C16.5,50.5,20.5,46.5,25.4,46.5z"/>
</svg>
