<?xml version="1.0" encoding="utf-8"?>
<!-- Generator: Adobe Illustrator 21.0.2, SVG Export Plug-In . SVG Version: 6.00 Build 0)  -->
<svg version="1.1" id="Calque_1" xmlns="http://www.w3.org/2000/svg" xmlns:xlink="http://www.w3.org/1999/xlink" x="0px" y="0px"
	 viewBox="0 0 85 85" style="enable-background:new 0 0 85 85;" xml:space="preserve">
<style type="text/css">
	.st0{fill:#FFFFFF;stroke:#020203;stroke-width:3;stroke-linecap:round;stroke-linejoin:round;stroke-miterlimit:10;}
	.st1{fill:#FFFFFF;stroke:#020203;stroke-width:2;stroke-linecap:round;stroke-linejoin:round;stroke-miterlimit:10;}
	.st2{fill:none;stroke:#020203;stroke-width:2;stroke-linecap:round;stroke-linejoin:round;stroke-miterlimit:10;}
	.st3{fill:none;stroke:#020203;stroke-width:3;stroke-linecap:round;stroke-linejoin:round;stroke-miterlimit:10;}
</style>
<path class="st0" d="M44,28.8c-2.1,10.1-12.2,17.8-24.3,17.8c-0.3,0-0.6,0-0.8,0c0,0.1,0,0.2,0,0.2C18.8,59.6,30,70,43.8,70
	s25-10.4,25-23.3c0-0.1,0-0.1,0-0.2c-0.1,0-0.3,0-0.4,0C56.2,46.5,46.1,38.9,44,28.8z"/>
<path class="st0" d="M44,28.8c-0.3-1.3-0.4-2.6-0.4-4c0-0.4,0-0.9,0-1.3c-13.6,0.1-24.7,10.3-24.8,23c0.3,0,0.6,0,0.8,0
	C31.8,46.5,41.8,38.9,44,28.8z"/>
<path class="st0" d="M44.4,23.5c0,0.4,0,0.8,0,1.3c0,1.4-0.2,2.7-0.4,4c2.1,10.1,12.2,17.8,24.3,17.8c0.1,0,0.3,0,0.4,0
	C68.6,34,57.8,23.8,44.4,23.5z"/>
<path class="st0" d="M43.6,23.5c0,0.4,0,0.8,0,1.3c0,1.4,0.2,2.7,0.4,4c0.3-1.3,0.4-2.6,0.4-4c0-0.4,0-0.8,0-1.3c-0.2,0-0.4,0-0.6,0
	C43.7,23.5,43.7,23.5,43.6,23.5z"/>
<path class="st1" d="M40.3,47.5c0,2-2,3.6-4.4,3.6c-2.3,0-4.2-1.4-4.4-3.3"/>
<line class="st2" x1="34.2" y1="50.9" x2="33.4" y2="52.2"/>
<line class="st2" x1="32.6" y1="49.9" x2="31.3" y2="51"/>
<line class="st2" x1="31.6" y1="48.5" x2="29.8" y2="49.2"/>
<line class="st2" x1="37.5" y1="50.9" x2="38.3" y2="52.2"/>
<line class="st2" x1="39.2" y1="49.9" x2="40.5" y2="51"/>
<line class="st2" x1="40.2" y1="48.5" x2="41.9" y2="49.2"/>
<line class="st2" x1="35.9" y1="51.1" x2="35.9" y2="52.8"/>
<path class="st1" d="M57,47.5c0,2-2,3.6-4.4,3.6c-2.3,0-4.2-1.4-4.4-3.3"/>
<line class="st2" x1="51" y1="50.9" x2="50.2" y2="52.2"/>
<line class="st2" x1="49.3" y1="49.9" x2="48" y2="51"/>
<line class="st2" x1="48.3" y1="48.5" x2="46.6" y2="49.2"/>
<line class="st2" x1="54.2" y1="50.9" x2="55" y2="52.2"/>
<line class="st2" x1="55.9" y1="49.9" x2="57.2" y2="51"/>
<line class="st2" x1="56.9" y1="48.5" x2="58.6" y2="49.2"/>
<line class="st2" x1="52.6" y1="51.1" x2="52.6" y2="52.8"/>
<path class="st2" d="M49.1,60.3c0,2.5-2.2,4.6-4.9,4.6c-2.7,0-4.9-2-4.9-4.6"/>
<path class="st3" d="M13,43.6c-0.9-0.6-1.8-0.9-2.9-0.9c-3.4,0-6.1,3.4-6.1,7.5c0,4.2,2.7,7.5,6.1,7.5c1.2,0,2.4-0.5,3.4-1.3"/>
<path class="st3" d="M76.8,43.6c-0.9,0-1.8,0.3-2.5,0.7c0.2,1.5,0.3,3.1,0.3,4.6c0,2.9-0.4,5.8-1.1,8.5c1,0.8,2.1,1.2,3.3,1.2
	c3.4,0,6.1-3.4,6.1-7.5C82.8,47,80.1,43.6,76.8,43.6z"/>
<path class="st3" d="M13.8,56.4c-0.8-2.6-1.3-5.4-1.3-8.3c0-16.3,13.9-29.5,31.1-29.5c17.2,0,31.1,13.2,31.1,29.5
	c0,3.3-0.6,6.4-1.6,9.3"/>
</svg>
