<?xml version="1.0" encoding="utf-8"?>
<!-- Generator: Adobe Illustrator 21.0.2, SVG Export Plug-In . SVG Version: 6.00 Build 0)  -->
<svg version="1.1" id="Calque_1" xmlns="http://www.w3.org/2000/svg" xmlns:xlink="http://www.w3.org/1999/xlink" x="0px" y="0px"
	 viewBox="0 0 85 85" style="enable-background:new 0 0 85 85;" xml:space="preserve">
<style type="text/css">
	.st0{fill:none;stroke:#020203;stroke-width:3;stroke-linecap:round;stroke-linejoin:round;stroke-miterlimit:10;}
	.st1{fill:none;stroke:#020203;stroke-width:2;stroke-miterlimit:10;}
	.st2{fill:none;stroke:#020203;stroke-width:2;stroke-linecap:round;stroke-linejoin:round;stroke-miterlimit:10;}
</style>
<polygon class="st0" points="43.5,26.5 54.5,26.5 43.5,15.5 "/>
<polygon class="st0" points="43.5,15.5 17.5,15.5 17.5,67.5 54.5,67.5 54.5,26 "/>
<ellipse class="st1" cx="34.4" cy="51" rx="3.4" ry="3.7"/>
<ellipse class="st2" cx="27.8" cy="36.9" rx="3.3" ry="3.2"/>
<circle class="st2" cx="26.6" cy="35.4" r="0.9"/>
<line class="st2" x1="28" y1="34" x2="28" y2="30"/>
<line class="st2" x1="30.3" y1="34.4" x2="31.9" y2="31.9"/>
<line class="st2" x1="25.4" y1="34" x2="24.1" y2="31.9"/>
<ellipse class="st2" cx="39.8" cy="36.9" rx="3.3" ry="3.2"/>
<circle class="st2" cx="38.6" cy="35.4" r="0.9"/>
<line class="st2" x1="40" y1="34" x2="40" y2="30"/>
<line class="st2" x1="42.3" y1="34.4" x2="43.9" y2="31.9"/>
<line class="st2" x1="37.4" y1="34" x2="36.1" y2="31.9"/>
</svg>
