<?xml version="1.0" encoding="utf-8"?>
<!-- Generator: Adobe Illustrator 21.0.2, SVG Export Plug-In . SVG Version: 6.00 Build 0)  -->
<svg version="1.1" id="Calque_1" xmlns="http://www.w3.org/2000/svg" xmlns:xlink="http://www.w3.org/1999/xlink" x="0px" y="0px"
	 viewBox="0 0 85 85" style="enable-background:new 0 0 85 85;" xml:space="preserve">
<style type="text/css">
	.st0{fill:none;}
	.st1{fill:#020203;}
	.st2{fill:none;stroke:#020203;stroke-width:2;stroke-miterlimit:10;}
	.st3{fill:none;stroke:#020203;stroke-width:2;stroke-linecap:round;stroke-linejoin:round;stroke-miterlimit:10;}
	.st4{fill:#FFFFFF;stroke:#020203;stroke-width:2;stroke-linecap:round;stroke-linejoin:round;stroke-miterlimit:10;}
</style>
<polygon class="st0" points="50.1,45.1 50.1,39.5 46.7,39.5 46.7,44.5 35.5,44.5 35.5,39.5 32.1,39.5 32.1,45.1 "/>
<g>
	<path class="st1" d="M59.4,72.1H23.3c-0.5,0-0.8-0.4-0.8-0.8V39.2c0-0.5,0.4-0.8,0.8-0.8h9c0.5,0,17.6,0,18,0h9
		c0.5,0,0.8,0.4,0.8,0.8v32.1C60.2,71.8,59.9,72.1,59.4,72.1z M24.2,70.5h34.4V40h-7.3H31.5h-7.3V70.5z"/>
</g>
<circle class="st2" cx="41.4" cy="55.8" r="5.9"/>
<circle class="st1" cx="41.3" cy="55.1" r="1.7"/>
<polygon class="st1" points="40,59.2 41.5,53.3 42.9,59.2 "/>
<path class="st0" d="M49.3,29.8c0-4.1-3.5-7.4-8-7.4c-4.5,0-8,3.8-8,7.9c0,0.1,0.1,0.1,0.1,0.7h-0.7v9H49v-9.7
	C49,30.2,49.3,30,49.3,29.8z"/>
<path class="st3" d="M33.5,30.2h-0.1c0-0.6,0-0.5,0-0.6c0-4.1,3.6-7.8,8.1-7.8c4.5,0,8,3.3,8,7.4c0,0.2-0.1,0.4-0.1,0.5v9.4h5.1v-12
	c0-0.2,0-0.4,0-0.7c0-5-5.8-9-13-9c-7.2,0-13,4-13,9c0,0.1,0,0.2,0,0.3h0v12.4h5.1V30.2z"/>
<path class="st4" d="M36.7,43.1c0,1.9-1.8,3.4-4.1,3.4c-2.1,0-3.9-1.3-4.1-3"/>
<line class="st3" x1="31.1" y1="46.3" x2="30.3" y2="47.5"/>
<line class="st3" x1="29.5" y1="45.4" x2="28.3" y2="46.3"/>
<line class="st3" x1="28.6" y1="44" x2="27" y2="44.6"/>
<line class="st3" x1="34.1" y1="46.3" x2="34.9" y2="47.5"/>
<line class="st3" x1="35.7" y1="45.4" x2="36.9" y2="46.3"/>
<line class="st3" x1="36.6" y1="44" x2="38.2" y2="44.6"/>
<line class="st3" x1="32.6" y1="46.5" x2="32.6" y2="48.1"/>
<path class="st4" d="M52.3,43.1c0,1.9-1.8,3.4-4.1,3.4c-2.1,0-3.9-1.3-4.1-3"/>
<line class="st3" x1="46.7" y1="46.3" x2="45.9" y2="47.5"/>
<line class="st3" x1="45.1" y1="45.4" x2="43.9" y2="46.3"/>
<line class="st3" x1="44.2" y1="44" x2="42.6" y2="44.6"/>
<line class="st3" x1="49.7" y1="46.3" x2="50.5" y2="47.5"/>
<line class="st3" x1="51.3" y1="45.4" x2="52.5" y2="46.3"/>
<line class="st3" x1="52.2" y1="44" x2="53.9" y2="44.6"/>
<line class="st3" x1="48.2" y1="46.5" x2="48.2" y2="48.1"/>
</svg>
