<?xml version="1.0" encoding="utf-8"?>
<!-- Generator: Adobe Illustrator 21.0.2, SVG Export Plug-In . SVG Version: 6.00 Build 0)  -->
<svg version="1.1" id="Calque_1" xmlns="http://www.w3.org/2000/svg" xmlns:xlink="http://www.w3.org/1999/xlink" x="0px" y="0px"
	 viewBox="0 0 85 85" style="enable-background:new 0 0 85 85;" xml:space="preserve">
<style type="text/css">
	.st0{fill:#FFFFFF;stroke:#020203;stroke-width:2.4;stroke-linecap:round;stroke-linejoin:round;stroke-miterlimit:10;}
	.st1{fill:#FFFFFF;stroke:#020203;stroke-width:1.6;stroke-linecap:round;stroke-linejoin:round;stroke-miterlimit:10;}
	.st2{fill:none;stroke:#020203;stroke-width:1.6;stroke-linecap:round;stroke-linejoin:round;stroke-miterlimit:10;}
</style>
<path class="st0" d="M15.4,37.7c-1.2,5.5-6.7,9.7-13.3,9.7c-0.2,0-0.3,0-0.5,0c0,0,0,0.1,0,0.1c0,7,6.1,12.7,13.6,12.7
	s13.6-5.7,13.6-12.7c0,0,0-0.1,0-0.1c-0.1,0-0.2,0-0.2,0C22.1,47.4,16.6,43.2,15.4,37.7z"/>
<path class="st0" d="M15.4,37.7c-0.1-0.7-0.2-1.4-0.2-2.2c0-0.2,0-0.5,0-0.7c-7.4,0-13.4,5.6-13.5,12.5c0.2,0,0.3,0,0.5,0
	C8.8,47.4,14.3,43.2,15.4,37.7z"/>
<path class="st0" d="M15.6,34.9c0,0.2,0,0.5,0,0.7c0,0.7-0.1,1.5-0.2,2.2c1.2,5.5,6.7,9.7,13.3,9.7c0.1,0,0.2,0,0.2,0
	C28.8,40.6,23,35,15.6,34.9z"/>
<path class="st0" d="M15.2,34.9c0,0.2,0,0.5,0,0.7c0,0.7,0.1,1.5,0.2,2.2c0.2-0.7,0.2-1.4,0.2-2.2c0-0.2,0-0.5,0-0.7
	C15.5,34.9,15.4,34.9,15.2,34.9C15.3,34.9,15.3,34.9,15.2,34.9z"/>
<path class="st1" d="M13.4,47.9c0,1.1-1.1,2-2.4,2c-1.2,0-2.3-0.8-2.4-1.8"/>
<line class="st2" x1="10.1" y1="49.8" x2="9.7" y2="50.5"/>
<line class="st2" x1="9.2" y1="49.3" x2="8.5" y2="49.8"/>
<line class="st2" x1="8.7" y1="48.5" x2="7.7" y2="48.8"/>
<line class="st2" x1="11.9" y1="49.8" x2="12.3" y2="50.5"/>
<line class="st2" x1="12.8" y1="49.3" x2="13.5" y2="49.8"/>
<line class="st2" x1="13.3" y1="48.5" x2="14.3" y2="48.8"/>
<line class="st2" x1="11" y1="49.9" x2="11" y2="50.8"/>
<path class="st1" d="M22.5,47.9c0,1.1-1.1,2-2.4,2c-1.2,0-2.3-0.8-2.4-1.8"/>
<line class="st2" x1="19.2" y1="49.8" x2="18.8" y2="50.5"/>
<line class="st2" x1="18.3" y1="49.3" x2="17.6" y2="49.8"/>
<line class="st2" x1="17.8" y1="48.5" x2="16.8" y2="48.8"/>
<line class="st2" x1="21" y1="49.8" x2="21.4" y2="50.5"/>
<line class="st2" x1="21.9" y1="49.3" x2="22.6" y2="49.8"/>
<line class="st2" x1="22.5" y1="48.5" x2="23.4" y2="48.8"/>
<line class="st2" x1="20.1" y1="49.9" x2="20.1" y2="50.8"/>
<path class="st2" d="M18.2,54.9c0,1.4-1.2,2.5-2.7,2.5s-2.7-1.1-2.7-2.5"/>
<path class="st0" d="M69.8,37.1c-1.2,5.5-6.7,9.7-13.3,9.7c-0.2,0-0.3,0-0.5,0c0,0,0,0.1,0,0.1c0,7,6.1,12.7,13.6,12.7
	s13.6-5.7,13.6-12.7c0,0,0-0.1,0-0.1c-0.1,0-0.2,0-0.2,0C76.5,46.8,71,42.6,69.8,37.1z"/>
<path class="st0" d="M69.8,37.1c-0.1-0.7-0.2-1.4-0.2-2.2c0-0.2,0-0.5,0-0.7c-7.4,0-13.4,5.6-13.5,12.5c0.2,0,0.3,0,0.5,0
	C63.2,46.8,68.7,42.6,69.8,37.1z"/>
<path class="st0" d="M70,34.2c0,0.2,0,0.5,0,0.7c0,0.7-0.1,1.5-0.2,2.2c1.2,5.5,6.7,9.7,13.3,9.7c0.1,0,0.2,0,0.2,0
	C83.2,39.9,77.4,34.4,70,34.2z"/>
<path class="st0" d="M69.6,34.2c0,0.2,0,0.5,0,0.7c0,0.7,0.1,1.5,0.2,2.2c0.2-0.7,0.2-1.4,0.2-2.2c0-0.2,0-0.5,0-0.7
	C69.9,34.2,69.8,34.2,69.6,34.2C69.7,34.2,69.7,34.2,69.6,34.2z"/>
<path class="st1" d="M67.8,47.3c0,1.1-1.1,2-2.4,2c-1.2,0-2.3-0.8-2.4-1.8"/>
<line class="st2" x1="64.5" y1="49.1" x2="64.1" y2="49.9"/>
<line class="st2" x1="63.6" y1="48.6" x2="62.9" y2="49.2"/>
<line class="st2" x1="63.1" y1="47.8" x2="62.1" y2="48.2"/>
<line class="st2" x1="66.3" y1="49.1" x2="66.7" y2="49.9"/>
<line class="st2" x1="67.2" y1="48.6" x2="67.9" y2="49.2"/>
<line class="st2" x1="67.7" y1="47.8" x2="68.7" y2="48.2"/>
<line class="st2" x1="65.4" y1="49.3" x2="65.4" y2="50.2"/>
<path class="st1" d="M76.9,47.3c0,1.1-1.1,2-2.4,2c-1.2,0-2.3-0.8-2.4-1.8"/>
<line class="st2" x1="73.6" y1="49.1" x2="73.2" y2="49.9"/>
<line class="st2" x1="72.7" y1="48.6" x2="72" y2="49.2"/>
<line class="st2" x1="72.2" y1="47.8" x2="71.2" y2="48.2"/>
<line class="st2" x1="75.4" y1="49.1" x2="75.8" y2="49.9"/>
<line class="st2" x1="76.3" y1="48.6" x2="77" y2="49.2"/>
<line class="st2" x1="76.9" y1="47.8" x2="77.8" y2="48.2"/>
<line class="st2" x1="74.5" y1="49.3" x2="74.5" y2="50.2"/>
<path class="st2" d="M72.6,54.3c0,1.4-1.2,2.5-2.7,2.5c-1.5,0-2.7-1.1-2.7-2.5"/>
<path class="st0" d="M42.4,30.6c-1.6,7.6-9.2,13.3-18.2,13.3c-0.2,0-0.4,0-0.6,0c0,0.1,0,0.1,0,0.2c0,9.6,8.4,17.4,18.7,17.4
	S60.9,53.7,60.9,44c0-0.1,0-0.1,0-0.2c-0.1,0-0.2,0-0.3,0C51.5,43.9,44,38.1,42.4,30.6z"/>
<path class="st0" d="M42.4,30.6c-0.2-1-0.3-2-0.3-3c0-0.3,0-0.6,0-1c-10.2,0.1-18.5,7.8-18.6,17.3c0.2,0,0.4,0,0.6,0
	C33.2,43.9,40.8,38.1,42.4,30.6z"/>
<path class="st0" d="M42.6,26.6c0,0.3,0,0.6,0,0.9c0,1-0.1,2-0.3,3c1.6,7.6,9.2,13.3,18.2,13.3c0.1,0,0.2,0,0.3,0
	C60.8,34.5,52.7,26.8,42.6,26.6z"/>
<path class="st0" d="M42.1,26.6c0,0.3,0,0.6,0,1c0,1,0.1,2,0.3,3c0.2-1,0.3-2,0.3-3c0-0.3,0-0.6,0-0.9c-0.1,0-0.3,0-0.4,0
	C42.2,26.6,42.1,26.6,42.1,26.6z"/>
<path class="st1" d="M39.6,44.6c0,1.5-1.5,2.7-3.3,2.7c-1.7,0-3.1-1.1-3.3-2.4"/>
<line class="st2" x1="35" y1="47.1" x2="34.5" y2="48.2"/>
<line class="st2" x1="33.8" y1="46.4" x2="32.8" y2="47.2"/>
<line class="st2" x1="33.1" y1="45.3" x2="31.7" y2="45.8"/>
<line class="st2" x1="37.5" y1="47.1" x2="38.1" y2="48.2"/>
<line class="st2" x1="38.7" y1="46.4" x2="39.7" y2="47.2"/>
<line class="st2" x1="39.5" y1="45.3" x2="40.8" y2="45.8"/>
<line class="st2" x1="36.3" y1="47.3" x2="36.3" y2="48.6"/>
<path class="st1" d="M52.1,44.6c0,1.5-1.5,2.7-3.3,2.7c-1.7,0-3.1-1.1-3.3-2.4"/>
<line class="st2" x1="47.6" y1="47.1" x2="47" y2="48.2"/>
<line class="st2" x1="46.3" y1="46.4" x2="45.4" y2="47.2"/>
<line class="st2" x1="45.6" y1="45.3" x2="44.3" y2="45.8"/>
<line class="st2" x1="50" y1="47.1" x2="50.6" y2="48.2"/>
<line class="st2" x1="51.3" y1="46.4" x2="52.2" y2="47.2"/>
<line class="st2" x1="52" y1="45.3" x2="53.3" y2="45.8"/>
<line class="st2" x1="48.8" y1="47.3" x2="48.8" y2="48.6"/>
<path class="st2" d="M46.2,54.2c0,1.9-1.6,3.4-3.7,3.4c-2,0-3.7-1.5-3.7-3.4"/>
</svg>
