<?xml version="1.0" encoding="utf-8"?>
<!-- Generator: Adobe Illustrator 21.0.2, SVG Export Plug-In . SVG Version: 6.00 Build 0)  -->
<svg version="1.1" id="Calque_1" xmlns="http://www.w3.org/2000/svg" xmlns:xlink="http://www.w3.org/1999/xlink" x="0px" y="0px"
	 viewBox="0 0 85 85" style="enable-background:new 0 0 85 85;" xml:space="preserve">
<style type="text/css">
	.st0{fill:none;stroke:#020203;stroke-width:4;stroke-linecap:round;stroke-linejoin:round;stroke-miterlimit:10;}
	.st1{fill:none;stroke:#020203;stroke-width:8;stroke-linecap:round;stroke-linejoin:round;stroke-miterlimit:10;}
</style>
<path class="st0" d="M63.9,45.6c-2.7-6.7-6.7-11.3-10.1-11.7C49.5,31.5,43.1,30,36,30c-11.5,0-21,3.9-23.4,9.2
	c-1.6,2-3.1,4.6-4.3,7.7C5,55.2,5.2,63.7,8.7,65.8c3.5,2.1,9-2.9,12.3-11.3c0.4-1.1,0.8-2.1,1.1-3.2c3.9,1.4,8.8,2.2,14,2.2
	c5.4,0,10.5-0.9,14.5-2.4c0.2,0.7,0.5,1.4,0.8,2.2c3.3,8.3,8.8,13.4,12.3,11.3C67,62.5,67.2,54,63.9,45.6z"/>
<circle class="st1" cx="24.5" cy="42.5" r="1.5"/>
<ellipse transform="matrix(0.866 -0.5 0.5 0.866 -14.3864 29.3107)" class="st1" cx="47.5" cy="41.5" rx="1.5" ry="1.5"/>
<line class="st0" x1="36" y1="30" x2="36" y2="16"/>
</svg>
