<?xml version="1.0" encoding="utf-8"?>
<!-- Generator: Adobe Illustrator 21.0.2, SVG Export Plug-In . SVG Version: 6.00 Build 0)  -->
<svg version="1.1" id="Calque_1" xmlns="http://www.w3.org/2000/svg" xmlns:xlink="http://www.w3.org/1999/xlink" x="0px" y="0px"
	 viewBox="0 0 85 85" style="enable-background:new 0 0 85 85;" xml:space="preserve">
<style type="text/css">
	.st0{fill:#FFFFFF;stroke:#020203;stroke-width:2.1467;stroke-linecap:round;stroke-linejoin:round;stroke-miterlimit:10;}
</style>
<polygon class="st0" points="8.4,19.3 8.4,17.2 2.3,17.2 2.3,19.3 2.3,32.2 21.9,32.2 21.9,19.3 "/>
<polyline class="st0" points="14.4,36.5 14.4,50.1 28,50.1 25.2,45.1 "/>
<line class="st0" x1="25.2" y1="54.4" x2="28" y2="50.1"/>
<polygon class="st0" points="38.4,42.9 38.4,40.8 32.3,40.8 32.3,42.9 32.3,55.8 52,55.8 52,42.9 "/>
<polyline class="st0" points="45.2,58.7 45.2,72.3 58.8,72.3 55.9,67.3 "/>
<line class="st0" x1="55.9" y1="76.6" x2="58.8" y2="72.3"/>
<polygon class="st0" points="69.2,65.1 69.2,63 63.1,63 63.1,65.1 63.1,78 82.8,78 82.8,65.1 "/>
</svg>
