<?xml version="1.0" encoding="utf-8"?>
<!-- Generator: Adobe Illustrator 21.0.2, SVG Export Plug-In . SVG Version: 6.00 Build 0)  -->
<svg version="1.1" id="Calque_1" xmlns="http://www.w3.org/2000/svg" xmlns:xlink="http://www.w3.org/1999/xlink" x="0px" y="0px"
	 viewBox="0 0 85 85" style="enable-background:new 0 0 85 85;" xml:space="preserve">
<style type="text/css">
	.st0{fill:#FFFFFF;stroke:#020203;stroke-width:3;stroke-linecap:round;stroke-linejoin:round;stroke-miterlimit:10;}
	.st1{fill:#FFFFFF;stroke:#020203;stroke-width:2;stroke-linecap:round;stroke-linejoin:round;stroke-miterlimit:10;}
	.st2{fill:none;stroke:#020203;stroke-width:2;stroke-linecap:round;stroke-linejoin:round;stroke-miterlimit:10;}
</style>
<path class="st0" d="M38.5,21.7C36,33.5,24.2,42.5,10,42.5c-0.3,0-0.7,0-1,0c0,0.1,0,0.2,0,0.3C9,57.8,22.1,70,38.2,70
	s29.2-12.2,29.2-27.2c0-0.1,0-0.2,0-0.3c-0.2,0-0.3,0-0.5,0C52.8,42.5,41,33.5,38.5,21.7z"/>
<path class="st0" d="M38.5,21.7C38.2,20.2,38,18.6,38,17c0-0.5,0-1,0.1-1.5c-16,0.1-28.9,12.1-29,27c0.3,0,0.7,0,1,0
	C24.2,42.5,36,33.5,38.5,21.7z"/>
<path class="st0" d="M38.9,15.5c0,0.5,0.1,1,0.1,1.5c0,1.6-0.2,3.2-0.5,4.7C41,33.5,52.8,42.5,67,42.5c0.2,0,0.3,0,0.5,0
	C67.3,27.8,54.7,15.9,38.9,15.5z"/>
<path class="st0" d="M38.1,15.5c0,0.5-0.1,1-0.1,1.5c0,1.6,0.2,3.2,0.5,4.7c0.3-1.5,0.5-3.1,0.5-4.7c0-0.5,0-1-0.1-1.5
	c-0.2,0-0.5,0-0.7,0C38.2,15.5,38.1,15.5,38.1,15.5z"/>
<path class="st1" d="M34.1,43.6c0,2.3-2.3,4.2-5.2,4.2c-2.7,0-4.9-1.7-5.1-3.8"/>
<line class="st2" x1="27.1" y1="47.6" x2="26.2" y2="49.2"/>
<line class="st2" x1="25.1" y1="46.5" x2="23.6" y2="47.7"/>
<line class="st2" x1="24" y1="44.8" x2="21.9" y2="45.6"/>
<line class="st2" x1="30.9" y1="47.6" x2="31.8" y2="49.2"/>
<line class="st2" x1="32.9" y1="46.5" x2="34.4" y2="47.7"/>
<line class="st2" x1="34" y1="44.8" x2="36.1" y2="45.6"/>
<line class="st2" x1="29" y1="47.8" x2="29" y2="49.8"/>
<path class="st1" d="M53.7,43.6c0,2.3-2.3,4.2-5.2,4.2c-2.7,0-4.9-1.7-5.1-3.8"/>
<line class="st2" x1="46.7" y1="47.6" x2="45.7" y2="49.2"/>
<line class="st2" x1="44.7" y1="46.5" x2="43.2" y2="47.7"/>
<line class="st2" x1="43.6" y1="44.8" x2="41.5" y2="45.6"/>
<line class="st2" x1="50.5" y1="47.6" x2="51.4" y2="49.2"/>
<line class="st2" x1="52.4" y1="46.5" x2="53.9" y2="47.7"/>
<line class="st2" x1="53.6" y1="44.8" x2="55.7" y2="45.6"/>
<line class="st2" x1="48.6" y1="47.8" x2="48.6" y2="49.8"/>
<path class="st2" d="M44.5,58.6c0,3-2.6,5.4-5.8,5.4c-3.2,0-5.8-2.4-5.8-5.4"/>
</svg>
