<?xml version="1.0" encoding="utf-8"?>
<!-- Generator: Adobe Illustrator 21.0.2, SVG Export Plug-In . SVG Version: 6.00 Build 0)  -->
<svg version="1.1" id="Calque_1" xmlns="http://www.w3.org/2000/svg" xmlns:xlink="http://www.w3.org/1999/xlink" x="0px" y="0px"
	 viewBox="0 0 85 85" style="enable-background:new 0 0 85 85;" xml:space="preserve">
<style type="text/css">
	.st0{fill:none;stroke:#020203;stroke-width:5;stroke-linecap:round;stroke-linejoin:round;stroke-miterlimit:10;}
	.st1{fill:#FFFFFF;stroke:#020203;stroke-width:2;stroke-linecap:round;stroke-linejoin:round;stroke-miterlimit:10;}
	.st2{fill:none;stroke:#020203;stroke-width:2;stroke-linecap:round;stroke-linejoin:round;stroke-miterlimit:10;}
</style>
<path class="st0" d="M64.3,36c-2.7,0-5.2,0.7-7.4,1.9c0-0.4,0.1-0.8,0.1-1.2c0-8.6-7-15.6-15.6-15.6c-8.6,0-15.6,7-15.6,15.6
	c0,0.2,0,0.4,0,0.7c-1.6-0.5-3.3-0.8-5-0.8c-8.6,0-15.6,7-15.6,15.6c0,8.6,7,15.6,15.6,15.6c4.7,0,8.8-2,11.7-5.3
	c2.7,2.4,6.4,3.9,10.3,3.9c3.9,0,7.5-1.5,10.3-3.9c2.8,3,6.8,4.8,11.3,4.8c8.6,0,15.6-7,15.6-15.6C79.9,43,72.9,36,64.3,36z"/>
<path class="st1" d="M36.7,42.2c0,2.1-2,3.7-4.6,3.7c-2.4,0-4.3-1.5-4.5-3.4"/>
<line class="st2" x1="30.4" y1="45.7" x2="29.6" y2="47.1"/>
<line class="st2" x1="28.7" y1="44.7" x2="27.4" y2="45.8"/>
<line class="st2" x1="27.7" y1="43.2" x2="25.9" y2="43.9"/>
<line class="st2" x1="33.8" y1="45.7" x2="34.6" y2="47.1"/>
<line class="st2" x1="35.5" y1="44.7" x2="36.9" y2="45.8"/>
<line class="st2" x1="36.6" y1="43.2" x2="38.4" y2="43.9"/>
<line class="st2" x1="32.1" y1="45.9" x2="32.1" y2="47.7"/>
<path class="st1" d="M54,42.2c0,2.1-2,3.7-4.6,3.7c-2.4,0-4.3-1.5-4.5-3.4"/>
<line class="st2" x1="47.7" y1="45.7" x2="46.9" y2="47.1"/>
<line class="st2" x1="46" y1="44.7" x2="44.7" y2="45.8"/>
<line class="st2" x1="45" y1="43.2" x2="43.2" y2="43.9"/>
<line class="st2" x1="51.1" y1="45.7" x2="52" y2="47.1"/>
<line class="st2" x1="52.9" y1="44.7" x2="54.2" y2="45.8"/>
<line class="st2" x1="53.9" y1="43.2" x2="55.7" y2="43.9"/>
<line class="st2" x1="49.5" y1="45.9" x2="49.5" y2="47.7"/>
<path class="st2" d="M45.8,55.5c0,2.6-2.3,4.7-5.1,4.7c-2.8,0-5.1-2.1-5.1-4.7"/>
</svg>
