<?xml version="1.0" encoding="utf-8"?>
<!-- Generator: Adobe Illustrator 21.0.2, SVG Export Plug-In . SVG Version: 6.00 Build 0)  -->
<svg version="1.1" id="Calque_1" xmlns="http://www.w3.org/2000/svg" xmlns:xlink="http://www.w3.org/1999/xlink" x="0px" y="0px"
	 viewBox="0 0 85 85" style="enable-background:new 0 0 85 85;" xml:space="preserve">
<style type="text/css">
	.st0{fill:#FFFFFF;stroke:#020203;stroke-width:3;stroke-linecap:round;stroke-linejoin:round;stroke-miterlimit:10;}
	.st1{fill:none;stroke:#020203;stroke-width:2;stroke-linecap:round;stroke-linejoin:round;stroke-miterlimit:10;}
</style>
<polygon class="st0" points="35.5,20.5 35.5,14.5 18.5,14.5 18.5,20.5 18.5,56.5 73.5,56.5 73.5,20.5 "/>
<polygon class="st0" points="30.5,26.5 30.5,20.5 13.5,20.5 13.5,26.5 13.5,62.5 68.5,62.5 68.5,26.5 "/>
<polygon class="st0" points="24.5,32.5 24.5,26.5 7.5,26.5 7.5,32.5 7.5,68.5 62.5,68.5 62.5,32.5 "/>
<ellipse class="st1" cx="26.8" cy="46.9" rx="3.3" ry="3.2"/>
<circle class="st1" cx="26.6" cy="48.4" r="0.9"/>
<line class="st1" x1="27" y1="43" x2="27" y2="39"/>
<line class="st1" x1="29.3" y1="44.4" x2="30.9" y2="41.9"/>
<line class="st1" x1="24.4" y1="44" x2="23.1" y2="41.9"/>
<ellipse class="st1" cx="38.8" cy="46.9" rx="3.3" ry="3.2"/>
<circle class="st1" cx="38.6" cy="48.4" r="0.9"/>
<line class="st1" x1="39" y1="43" x2="39" y2="39"/>
<line class="st1" x1="41.3" y1="44.4" x2="42.9" y2="41.9"/>
<line class="st1" x1="36.4" y1="44" x2="35.1" y2="41.9"/>
<path class="st1" d="M38,56.8c0,2.9-2.5,5.2-5.6,5.2c-3.1,0-5.6-2.3-5.6-5.2"/>
</svg>
