<?xml version="1.0" encoding="utf-8"?>
<!-- Generator: Adobe Illustrator 21.0.2, SVG Export Plug-In . SVG Version: 6.00 Build 0)  -->
<svg version="1.1" id="Calque_1" xmlns="http://www.w3.org/2000/svg" xmlns:xlink="http://www.w3.org/1999/xlink" x="0px" y="0px"
	 viewBox="0 0 85 85" style="enable-background:new 0 0 85 85;" xml:space="preserve">
<style type="text/css">
	.st0{fill:none;}
	.st1{fill:#020203;}
	.st2{fill:none;stroke:#020203;stroke-width:3;stroke-linecap:round;stroke-linejoin:round;stroke-miterlimit:10;}
	.st3{fill:none;stroke:#020203;stroke-width:3;stroke-miterlimit:10;}
	.st4{fill:#FFFFFF;stroke:#020203;stroke-width:2;stroke-linecap:round;stroke-linejoin:round;stroke-miterlimit:10;}
	.st5{fill:none;stroke:#020203;stroke-width:2;stroke-linecap:round;stroke-linejoin:round;stroke-miterlimit:10;}
</style>
<path class="st0" d="M68.5,21.2c0-5.8-5-10.6-11.3-10.6c-6.3,0-11.4,5.4-11.4,11.3c0,0.1,0.1,0.2,0.1,1h-1v12.8h23.2V22
	C68.1,21.7,68.5,21.5,68.5,21.2z"/>
<polygon class="st0" points="44.1,42.9 44.1,34.9 39.3,34.9 39.3,42.1 23.3,42.1 23.3,34.9 18.5,34.9 18.5,42.9 "/>
<g>
	<path class="st1" d="M57.3,81.3H6.1c-0.7,0-1.2-0.5-1.2-1.2V34.5c0-0.7,0.5-1.2,1.2-1.2h12.8c0.7,0,24.9,0,25.6,0h12.8
		c0.7,0,1.2,0.5,1.2,1.2v45.6C58.5,80.8,57.9,81.3,57.3,81.3z M7.3,78.9h48.8V35.7H45.7h-28H7.3V78.9z"/>
</g>
<path class="st2" d="M46.1,21.7h-0.2c0-0.8,0-0.7,0-0.8c0-5.8,5.1-11.1,11.5-11.1c6.3,0,11.3,4.7,11.3,10.6c0,0.3-0.2,0.5-0.2,0.8
	v13.3h7.2v-17c0-0.3,0.1-0.6,0.1-0.9c0-7.1-8.3-12.8-18.4-12.8c-10.2,0-18.4,5.7-18.4,12.8c0,0.1,0,0.3,0,0.4h0v17.6h7.2V21.7z"/>
<circle class="st3" cx="31.7" cy="58.1" r="8.4"/>
<circle class="st1" cx="31.6" cy="57" r="2.5"/>
<polygon class="st1" points="29.7,62.9 31.8,54.5 33.9,62.9 "/>
<polygon class="st0" points="45.7,45.3 45.7,37.3 40.9,37.3 40.9,44.5 24.9,44.5 24.9,37.3 20.1,37.3 20.1,45.3 "/>
<path class="st4" d="M26.6,42.5c0,2.6-2.6,4.8-5.8,4.8c-3,0-5.5-1.9-5.8-4.3"/>
<line class="st5" x1="18.6" y1="47" x2="17.6" y2="48.8"/>
<line class="st5" x1="16.4" y1="45.7" x2="14.7" y2="47.1"/>
<line class="st5" x1="15.1" y1="43.8" x2="12.8" y2="44.7"/>
<line class="st5" x1="23" y1="47" x2="24" y2="48.8"/>
<line class="st5" x1="25.2" y1="45.7" x2="26.9" y2="47.1"/>
<line class="st5" x1="26.5" y1="43.8" x2="28.8" y2="44.7"/>
<line class="st5" x1="20.8" y1="47.2" x2="20.8" y2="49.5"/>
<path class="st4" d="M48.8,42.5c0,2.6-2.6,4.8-5.8,4.8c-3,0-5.5-1.9-5.8-4.3"/>
<line class="st5" x1="40.8" y1="47" x2="39.8" y2="48.8"/>
<line class="st5" x1="38.6" y1="45.7" x2="36.9" y2="47.1"/>
<line class="st5" x1="37.3" y1="43.8" x2="35" y2="44.7"/>
<line class="st5" x1="45.1" y1="47" x2="46.2" y2="48.8"/>
<line class="st5" x1="47.3" y1="45.7" x2="49" y2="47.1"/>
<line class="st5" x1="48.6" y1="43.8" x2="51" y2="44.7"/>
<line class="st5" x1="43" y1="47.2" x2="43" y2="49.5"/>
</svg>
